<svg width="28" height="22" viewBox="0 0 28 22" fill="none" xmlns="http://www.w3.org/2000/svg">
<mask id="path-1-inside-1" fill="white">
<path fill-rule="evenodd" clip-rule="evenodd" d="M1.5 0.5C1.66761 0.5 1.83431 0.503927 2 0.511696V0.5L26.5 0.5H27V0.511696C32.5668 0.772673 37 5.36862 37 11C37 16.6314 32.5668 21.2273 27 21.4883V21.5H26.5L2 21.5V21.4883C1.83431 21.4961 1.66761 21.5 1.5 21.5C-4.29899 21.5 -9 16.799 -9 11C-9 5.20101 -4.29899 0.5 1.5 0.5Z"/>
</mask>
<path d="M2 0.511696L1.95317 1.5106L3 1.55968V0.511696H2ZM2 0.5V-0.5H1V0.5H2ZM27 0.5H28V-0.5H27V0.5ZM27 0.511696H26V1.46591L26.9532 1.5106L27 0.511696ZM27 21.4883L26.9532 20.4894L26 20.5341V21.4883H27ZM27 21.5V22.5H28V21.5H27ZM2 21.5H1V22.5H2V21.5ZM2 21.4883H3V20.4403L1.95317 20.4894L2 21.4883ZM2.04683 -0.487207C1.86555 -0.495707 1.68324 -0.5 1.5 -0.5V1.5C1.65199 1.5 1.80307 1.50356 1.95317 1.5106L2.04683 -0.487207ZM1 0.5V0.511696H3V0.5H1ZM26.5 -0.5L2 -0.5V1.5L26.5 1.5V-0.5ZM27 -0.5H26.5V1.5H27V-0.5ZM28 0.511696V0.5H26V0.511696H28ZM26.9532 1.5106C31.989 1.74668 36 5.90522 36 11H38C38 4.83202 33.1446 -0.201338 27.0468 -0.487207L26.9532 1.5106ZM36 11C36 16.0948 31.989 20.2533 26.9532 20.4894L27.0468 22.4872C33.1446 22.2013 38 17.168 38 11H36ZM28 21.5V21.4883H26V21.5H28ZM26.5 22.5H27V20.5H26.5V22.5ZM2 22.5L26.5 22.5V20.5L2 20.5V22.5ZM1 21.4883V21.5H3V21.4883H1ZM1.5 22.5C1.68324 22.5 1.86555 22.4957 2.04683 22.4872L1.95317 20.4894C1.80307 20.4964 1.65199 20.5 1.5 20.5V22.5ZM-10 11C-10 17.3513 -4.85127 22.5 1.5 22.5V20.5C-3.74671 20.5 -8 16.2467 -8 11H-10ZM1.5 -0.5C-4.85127 -0.5 -10 4.64873 -10 11H-8C-8 5.75329 -3.74671 1.5 1.5 1.5V-0.5Z" fill="white" fill-opacity="0.5" mask="url(#path-1-inside-1)"/>
<path d="M28.3536 10.8536C28.5488 10.6583 28.5488 10.3417 28.3536 10.1464L25.1716 6.96447C24.9763 6.7692 24.6597 6.7692 24.4645 6.96447C24.2692 7.15973 24.2692 7.47631 24.4645 7.67157L27.2929 10.5L24.4645 13.3284C24.2692 13.5237 24.2692 13.8403 24.4645 14.0355C24.6597 14.2308 24.9763 14.2308 25.1716 14.0355L28.3536 10.8536ZM1 11H28V10H1V11Z" fill="#FCFCFC"/>
</svg>
